<svg xmlns="http://www.w3.org/2000/svg" xmlns:xlink="http://www.w3.org/1999/xlink" version="1.1" width="817" height="253" viewBox="0 0 817 253" xml:space="preserve">
<desc>Created with Fabric.js 3.5.0</desc>
<defs>
</defs>
<rect x="0" y="0" width="100%" height="100%" fill="none"/>
<g transform="matrix(3.5149 0 0 3.5149 40.9489 91.5637)" id="269459">
<path style="stroke: none; stroke-width: 1; stroke-dasharray: none; stroke-linecap: butt; stroke-dashoffset: 0; stroke-linejoin: miter; stroke-miterlimit: 4; is-custom-font: none; font-file-url: none; fill: rgb(255,230,68); fill-rule: nonzero; opacity: 1;" transform=" translate(-46.95, -92.55)" d="M 58.1 118.1 V 67 l -22.3 37.7 L 58.1 118.1 z" stroke-linecap="round"/>
</g>
<g transform="matrix(3.5149 0 0 3.5149 119.3321 91.388)" id="729172">
<path style="stroke: none; stroke-width: 1; stroke-dasharray: none; stroke-linecap: butt; stroke-dashoffset: 0; stroke-linejoin: miter; stroke-miterlimit: 4; is-custom-font: none; font-file-url: none; fill: rgb(236,116,99); fill-rule: nonzero; opacity: 1;" transform=" translate(-69.25, -92.5)" d="M 58.1 67 l 22.3 37.7 l -22.3 13.3 V 67 z" stroke-linecap="round"/>
</g>
<g transform="matrix(3.5149 0 0 3.5149 40.9489 198.0668)" id="448057">
<path style="stroke: none; stroke-width: 1; stroke-dasharray: none; stroke-linecap: butt; stroke-dashoffset: 0; stroke-linejoin: miter; stroke-miterlimit: 4; is-custom-font: none; font-file-url: none; fill: rgb(0,158,203); fill-rule: nonzero; opacity: 1;" transform=" translate(-46.95, -122.85)" d="M 35.8 107.6 l 22.3 13.3 v 17.2" stroke-linecap="round"/>
</g>
<g transform="matrix(3.5149 0 0 3.5149 119.3321 198.0668)" id="578339">
<path style="stroke: none; stroke-width: 1; stroke-dasharray: none; stroke-linecap: butt; stroke-dashoffset: 0; stroke-linejoin: miter; stroke-miterlimit: 4; is-custom-font: none; font-file-url: none; fill: rgb(77,104,174); fill-rule: nonzero; opacity: 1;" transform=" translate(-69.25, -122.85)" d="M 80.4 107.6 l -22.3 13.3 v 17.2" stroke-linecap="round"/>
</g>
<g transform="matrix(3.5149 0 0 3.5149 40.9489 134.2707)" id="952454">
<path style="stroke: none; stroke-width: 1; stroke-dasharray: none; stroke-linecap: butt; stroke-dashoffset: 0; stroke-linejoin: miter; stroke-miterlimit: 4; is-custom-font: none; font-file-url: none; fill: rgb(87,167,89); fill-rule: nonzero; opacity: 1;" transform=" translate(-46.95, -104.7)" d="M 58.1 91.4 l -22.3 13.3 l 22.3 13.3 V 91.4 z" stroke-linecap="round"/>
</g>
<g transform="matrix(3.5149 0 0 3.5149 119.3321 134.2707)" id="755103">
<path style="stroke: none; stroke-width: 1; stroke-dasharray: none; stroke-linecap: butt; stroke-dashoffset: 0; stroke-linejoin: miter; stroke-miterlimit: 4; is-custom-font: none; font-file-url: none; fill: rgb(142,82,152); fill-rule: nonzero; opacity: 1;" transform=" translate(-69.25, -104.7)" d="M 58.1 91.4 l 22.3 13.3 l -22.3 13.3 V 91.4 z" stroke-linecap="round"/>
</g>
<g transform="matrix(3.5149 0 0 3.5149 236.0176 93.5292)" id="402409">
<path style="stroke: none; stroke-width: 1; stroke-dasharray: none; stroke-linecap: butt; stroke-dashoffset: 0; stroke-linejoin: miter; stroke-miterlimit: 4; is-custom-font: none; font-file-url: none; fill: rgb(38,41,59); fill-rule: nonzero; opacity: 1;" transform=" translate(-33.55, -69.3)" d="M 26.6 69.4 c 0 -1.3 0.3 -2.6 0.9 -3.8 c 0.6 -1.1 1.4 -2 2.5 -2.6 c 1.1 -0.6 2.4 -0.9 3.6 -0.9 c 1.2 0 2.5 0.3 3.6 0.9 c 1 0.6 1.9 1.5 2.4 2.6 c 0.6 1.2 0.9 2.5 0.9 3.8 v 1.1 H 30.3 c 0 0.8 0.4 1.6 1 2.1 c 0.7 0.6 1.5 0.8 2.4 0.8 c 0.7 0 1.3 -0.1 1.9 -0.5 c 0.7 -0.4 1.4 -0.9 1.9 -1.6 l 2.3 2.4 c -0.8 0.9 -1.7 1.6 -2.7 2.1 c -1.1 0.5 -2.2 0.7 -3.4 0.7 c -1.3 0 -2.6 -0.3 -3.7 -0.9 c -1.1 -0.6 -1.9 -1.5 -2.5 -2.5 C 26.8 72.1 26.6 70.8 26.6 69.4 z M 36.7 67.9 c -0.1 -0.7 -0.4 -1.4 -1 -1.9 c -1.3 -1 -3 -1 -4.3 0 c -0.6 0.5 -0.9 1.2 -1.1 1.9 H 36.7 z" stroke-linecap="round"/>
</g>
<g transform="matrix(3.5149 0 0 3.5149 297.8806 87.7561)" id="636047">
<path style="stroke: none; stroke-width: 1; stroke-dasharray: none; stroke-linecap: butt; stroke-dashoffset: 0; stroke-linejoin: miter; stroke-miterlimit: 4; is-custom-font: none; font-file-url: none; fill: rgb(38,41,59); fill-rule: nonzero; opacity: 1;" transform=" translate(-51.15, -67.6576)" d="M 52 65.9 v 5.5 c 0 0.4 0.1 0.7 0.3 1 c 0.3 0.2 0.7 0.3 1.1 0.3 h 3.1 v 3.6 H 53 c -1.3 0.1 -2.5 -0.3 -3.5 -1.1 c -0.9 -0.8 -1.3 -1.9 -1.2 -3.1 v -6.3 h -3.4 v -3.3 h 3.4 v -3.5 H 52 v 3.5 h 5.4 v 3.3 L 52 65.9 z" stroke-linecap="round"/>
</g>
<g transform="matrix(3.5149 0 0 3.5149 359.7775 84.7418)" id="180191">
<path style="stroke: none; stroke-width: 1; stroke-dasharray: none; stroke-linecap: butt; stroke-dashoffset: 0; stroke-linejoin: miter; stroke-miterlimit: 4; is-custom-font: none; font-file-url: none; fill: rgb(38,41,59); fill-rule: nonzero; opacity: 1;" transform=" translate(-68.7597, -66.8)" d="M 62.4 57.4 h 3.7 v 6.4 h 0.1 c 1.7 -1.8 4.5 -2.2 6.6 -0.9 c 0.8 0.5 1.4 1.2 1.8 2 c 0.4 1 0.7 2 0.6 3 v 8.3 h -3.7 v -7.8 c 0 -0.8 -0.2 -1.5 -0.7 -2.1 c -0.5 -0.5 -1.2 -0.8 -1.9 -0.8 c -0.8 0 -1.5 0.2 -2.1 0.8 c -0.5 0.6 -0.8 1.3 -0.8 2.1 v 7.8 h -3.7 L 62.4 57.4 z" stroke-linecap="round"/>
</g>
<g transform="matrix(3.5149 0 0 3.5149 421.2549 93.5629)" id="454532">
<path style="stroke: none; stroke-width: 1; stroke-dasharray: none; stroke-linecap: butt; stroke-dashoffset: 0; stroke-linejoin: miter; stroke-miterlimit: 4; is-custom-font: none; font-file-url: none; fill: rgb(38,41,59); fill-rule: nonzero; opacity: 1;" transform=" translate(-86.25, -69.3096)" d="M 79.3 69.4 c 0 -1.3 0.3 -2.6 0.9 -3.8 c 0.6 -1.1 1.4 -2 2.5 -2.6 c 1.1 -0.6 2.4 -0.9 3.6 -0.9 c 1.2 0 2.5 0.3 3.6 0.9 c 1 0.6 1.9 1.5 2.4 2.6 c 0.6 1.2 0.9 2.5 0.9 3.8 v 1.1 H 83 c 0 0.8 0.4 1.6 1 2.1 c 0.7 0.6 1.5 0.8 2.4 0.8 c 0.7 0 1.3 -0.1 1.9 -0.5 c 0.7 -0.4 1.4 -0.9 1.9 -1.6 l 2.3 2.4 c -0.8 0.9 -1.7 1.6 -2.7 2.1 c -1.1 0.5 -2.2 0.8 -3.4 0.7 c -1.3 0 -2.6 -0.3 -3.7 -0.9 c -1.1 -0.6 -1.9 -1.5 -2.5 -2.5 C 79.6 72.1 79.3 70.8 79.3 69.4 z M 89.4 67.9 c -0.1 -0.7 -0.4 -1.4 -1 -1.9 c -1.3 -1 -3 -1 -4.3 0 c -0.6 0.5 -0.9 1.2 -1.1 1.9 H 89.4 z" stroke-linecap="round"/>
</g>
<g transform="matrix(3.5149 0 0 3.5149 486.2813 93.1777)" id="966053">
<path style="stroke: none; stroke-width: 1; stroke-dasharray: none; stroke-linecap: butt; stroke-dashoffset: 0; stroke-linejoin: miter; stroke-miterlimit: 4; is-custom-font: none; font-file-url: none; fill: rgb(38,41,59); fill-rule: nonzero; opacity: 1;" transform=" translate(-104.75, -69.2)" d="M 98.5 62.6 h 3.5 v 1.3 h 0.1 c 1 -1.1 2.5 -1.7 4 -1.7 c 1.1 0 2.2 0.3 3.1 1 c 0.9 0.7 1.5 1.7 1.8 2.9 l -3.5 1.1 c -0.3 -1.1 -1.3 -1.8 -2.5 -1.7 c -0.8 -0.1 -1.6 0.2 -2.1 0.8 c -0.5 0.6 -0.8 1.4 -0.7 2.2 v 7.7 h -3.7 L 98.5 62.6 z" stroke-linecap="round"/>
</g>
<g transform="matrix(3.5149 0 0 3.5149 544.9478 93.5629)" id="463864">
<path style="stroke: none; stroke-width: 1; stroke-dasharray: none; stroke-linecap: butt; stroke-dashoffset: 0; stroke-linejoin: miter; stroke-miterlimit: 4; is-custom-font: none; font-file-url: none; fill: rgb(38,41,59); fill-rule: nonzero; opacity: 1;" transform=" translate(-121.4406, -69.3096)" d="M 114.5 69.4 c 0 -1.3 0.3 -2.6 0.9 -3.8 c 0.6 -1.1 1.4 -2 2.5 -2.6 c 1.1 -0.6 2.4 -0.9 3.6 -0.9 c 1.2 0 2.5 0.3 3.6 0.9 c 1 0.6 1.9 1.5 2.4 2.6 c 0.6 1.2 0.9 2.5 0.9 3.8 v 1.1 h -10.2 c 0 0.8 0.4 1.6 1 2.1 c 0.7 0.6 1.5 0.8 2.4 0.8 c 0.7 0 1.3 -0.1 1.9 -0.5 c 0.7 -0.4 1.4 -0.9 1.9 -1.6 l 2.3 2.4 c -0.8 0.9 -1.7 1.6 -2.7 2.1 c -1.1 0.5 -2.2 0.8 -3.4 0.7 c -1.3 0 -2.6 -0.3 -3.7 -0.9 c -1.1 -0.6 -1.9 -1.5 -2.5 -2.5 C 114.7 72.1 114.4 70.8 114.5 69.4 z M 124.6 67.9 c -0.1 -0.7 -0.4 -1.4 -1 -1.9 c -1.3 -1 -3 -1 -4.3 0 c -0.6 0.5 -0.9 1.2 -1.1 1.9 H 124.6 z" stroke-linecap="round"/>
</g>
<g transform="matrix(3.5149 0 0 3.5149 606.4701 94.8234)" id="620106">
<path style="stroke: none; stroke-width: 1; stroke-dasharray: none; stroke-linecap: butt; stroke-dashoffset: 0; stroke-linejoin: miter; stroke-miterlimit: 4; is-custom-font: none; font-file-url: none; fill: rgb(38,41,59); fill-rule: nonzero; opacity: 1;" transform=" translate(-138.9437, -69.6682)" d="M 132.8 71.6 v -9 h 3.7 v 8.2 c -0.2 1.2 0.6 2.3 1.8 2.5 c 0.2 0 0.4 0 0.6 0 c 0.7 0 1.3 -0.2 1.8 -0.7 c 0.5 -0.5 0.7 -1.2 0.7 -1.8 v -8.2 h 3.7 v 13.7 h -3.5 v -1.2 h -0.1 c -0.4 0.5 -1 0.9 -1.6 1.2 c -2 0.8 -4.2 0.5 -5.8 -0.9 C 133.2 74.3 132.7 73 132.8 71.6 z" stroke-linecap="round"/>
</g>
<g transform="matrix(3.5149 0 0 3.5149 668.5577 93.5103)" id="624433">
<path style="stroke: none; stroke-width: 1; stroke-dasharray: none; stroke-linecap: butt; stroke-dashoffset: 0; stroke-linejoin: miter; stroke-miterlimit: 4; is-custom-font: none; font-file-url: none; fill: rgb(38,41,59); fill-rule: nonzero; opacity: 1;" transform=" translate(-156.6077, -69.2946)" d="M 149.2 62.6 h 3.3 v 1.2 h 0.1 c 0.3 -0.4 0.7 -0.8 1.1 -1.1 c 0.5 -0.3 1 -0.4 1.5 -0.4 c 1.1 0 2.1 0.6 2.6 1.5 h 0.1 c 0.6 -1 1.7 -1.6 2.8 -1.5 c 0.9 0 1.8 0.4 2.4 1.1 c 0.6 0.8 1 1.8 0.9 2.8 v 10.1 h -3.4 v -9.5 c 0 -0.3 -0.1 -0.7 -0.3 -0.9 c -0.2 -0.2 -0.6 -0.3 -0.9 -0.3 c -0.3 0 -0.6 0.1 -0.9 0.4 c -0.2 0.3 -0.3 0.6 -0.3 0.9 v 9.4 H 155 v -9.5 c 0 -0.3 -0.1 -0.6 -0.3 -0.9 c -0.2 -0.2 -0.5 -0.3 -0.8 -0.3 c -0.3 0 -0.7 0.1 -0.9 0.3 c -0.2 0.3 -0.4 0.6 -0.3 0.9 v 9.4 h -3.4 L 149.2 62.6 z" stroke-linecap="round"/>
</g>
<g transform="matrix(3.5149 0 0 3.5149 236.0177 182.4305)" id="581222">
<path style="stroke: none; stroke-width: 1; stroke-dasharray: none; stroke-linecap: butt; stroke-dashoffset: 0; stroke-linejoin: miter; stroke-miterlimit: 4; is-custom-font: none; font-file-url: none; fill: rgb(38,41,59); fill-rule: nonzero; opacity: 1;" transform=" translate(-33.55, -94.5924)" d="M 30.7 94.7 h -3.6 v -3.3 h 3.6 v -2 c -0.1 -1.1 0.4 -2.1 1.2 -2.9 c 0.9 -0.7 2.1 -1.1 3.3 -1 h 4 v 3.3 h -3.5 c -0.3 0 -0.6 0.1 -0.8 0.3 c -0.2 0.2 -0.3 0.5 -0.3 0.8 v 1.6 H 40 v 3.3 h -5.5 v 8.9 h -3.8 L 30.7 94.7 z" stroke-linecap="round"/>
</g>
<g transform="matrix(3.5149 0 0 3.5149 298.199 189.6629)" id="801130">
<path style="stroke: none; stroke-width: 1; stroke-dasharray: none; stroke-linecap: butt; stroke-dashoffset: 0; stroke-linejoin: miter; stroke-miterlimit: 4; is-custom-font: none; font-file-url: none; fill: rgb(38,41,59); fill-rule: nonzero; opacity: 1;" transform=" translate(-51.2406, -96.65)" d="M 44.2 96.7 c 0 -1.3 0.3 -2.6 0.9 -3.8 c 0.6 -1.1 1.4 -2 2.5 -2.6 c 2.3 -1.2 5 -1.2 7.3 0 c 1 0.6 1.9 1.5 2.5 2.6 c 1.2 2.4 1.2 5.2 0 7.5 c -0.6 1.1 -1.4 2 -2.5 2.6 c -2.3 1.2 -5 1.2 -7.3 0 c -1.1 -0.6 -1.9 -1.5 -2.5 -2.6 C 44.4 99.3 44.1 98 44.2 96.7 z M 54.4 96.7 c 0.1 -1 -0.2 -2 -0.9 -2.8 c -0.6 -0.7 -1.5 -1.1 -2.4 -1 c -0.9 0 -1.8 0.3 -2.4 1 c -0.6 0.8 -0.9 1.8 -0.9 2.8 c -0.1 1 0.2 2 0.9 2.8 c 1.3 1.3 3.4 1.4 4.8 0.1 c 0 0 0.1 -0.1 0.1 -0.1 C 54.2 98.7 54.5 97.7 54.4 96.7 z" stroke-linecap="round"/>
</g>
<g transform="matrix(3.5149 0 0 3.5149 359.5238 191.0664)" id="345816">
<path style="stroke: none; stroke-width: 1; stroke-dasharray: none; stroke-linecap: butt; stroke-dashoffset: 0; stroke-linejoin: miter; stroke-miterlimit: 4; is-custom-font: none; font-file-url: none; fill: rgb(38,41,59); fill-rule: nonzero; opacity: 1;" transform=" translate(-68.6875, -97.0493)" d="M 62.5 98.9 v -9 h 3.7 v 8.2 c -0.2 1.2 0.7 2.3 1.9 2.5 c 0.2 0 0.4 0 0.6 0 c 0.7 0 1.3 -0.2 1.8 -0.7 c 0.5 -0.5 0.7 -1.2 0.7 -1.8 v -8.2 h 3.7 v 13.7 h -3.5 v -1.2 h -0.1 c -0.4 0.5 -1 0.9 -1.6 1.2 c -2.3 1.3 -5.3 0.4 -6.6 -1.9 C 62.6 100.8 62.4 99.8 62.5 98.9 L 62.5 98.9 z" stroke-linecap="round"/>
</g>
<g transform="matrix(3.5149 0 0 3.5149 421.9915 189.1356)" id="246833">
<path style="stroke: none; stroke-width: 1; stroke-dasharray: none; stroke-linecap: butt; stroke-dashoffset: 0; stroke-linejoin: miter; stroke-miterlimit: 4; is-custom-font: none; font-file-url: none; fill: rgb(38,41,59); fill-rule: nonzero; opacity: 1;" transform=" translate(-86.4596, -96.5)" d="M 80 89.9 h 3.7 v 1.3 h 0.1 c 0.5 -0.5 1.1 -0.9 1.8 -1.3 c 0.7 -0.3 1.4 -0.4 2.2 -0.4 c 0.9 0 1.7 0.2 2.5 0.6 c 0.8 0.5 1.5 1.1 1.9 1.9 c 0.5 1 0.8 2.1 0.7 3.2 v 8.3 h -3.7 v -7.8 c 0 -0.8 -0.2 -1.5 -0.7 -2.1 c -0.5 -0.6 -1.2 -0.8 -1.9 -0.8 c -0.8 0 -1.5 0.2 -2.1 0.8 c -0.5 0.6 -0.8 1.3 -0.8 2.1 v 7.8 H 80 L 80 89.9 z" stroke-linecap="round"/>
</g>
<g transform="matrix(3.5149 0 0 3.5149 481.7118 181.5784)" id="102614">
<path style="stroke: none; stroke-width: 1; stroke-dasharray: none; stroke-linecap: butt; stroke-dashoffset: 0; stroke-linejoin: miter; stroke-miterlimit: 4; is-custom-font: none; font-file-url: none; fill: rgb(38,41,59); fill-rule: nonzero; opacity: 1;" transform=" translate(-103.45, -94.35)" d="M 96.6 96.7 c 0 -1.3 0.3 -2.6 0.8 -3.7 c 0.5 -1.1 1.3 -2 2.2 -2.6 c 1 -0.6 2.1 -0.9 3.3 -0.9 c 1.3 -0.1 2.6 0.4 3.6 1.2 h 0.1 v -6 h 3.7 v 18.9 h -3.4 v -1.2 h -0.1 c -1 1.1 -2.5 1.6 -4 1.6 c -1.1 0 -2.3 -0.3 -3.2 -0.9 c -1 -0.6 -1.7 -1.5 -2.2 -2.5 C 96.9 99.3 96.6 98 96.6 96.7 z M 106.6 97.6 v -1.8 c 0 -0.5 -0.1 -1 -0.4 -1.4 c -0.3 -0.5 -0.7 -0.8 -1.2 -1.1 c -0.5 -0.3 -1.1 -0.4 -1.6 -0.4 c -0.9 0 -1.7 0.4 -2.3 1 c -1.1 1.7 -1.1 3.9 0 5.6 c 0.5 0.7 1.4 1.1 2.2 1.1 c 0.9 0 1.7 -0.3 2.3 -0.9 C 106.3 99.2 106.6 98.4 106.6 97.6 L 106.6 97.6 z" stroke-linecap="round"/>
</g>
<g transform="matrix(3.5149 0 0 3.5149 544.9586 189.4651)" id="441417">
<path style="stroke: none; stroke-width: 1; stroke-dasharray: none; stroke-linecap: butt; stroke-dashoffset: 0; stroke-linejoin: miter; stroke-miterlimit: 4; is-custom-font: none; font-file-url: none; fill: rgb(38,41,59); fill-rule: nonzero; opacity: 1;" transform=" translate(-121.4437, -96.5938)" d="M 115.3 99.9 c -0.1 -1.1 0.4 -2.2 1.3 -3 c 1.3 -0.9 2.8 -1.4 4.4 -1.6 c 0.8 -0.1 1.5 -0.3 2.2 -0.6 c 0.3 -0.2 0.6 -0.5 0.6 -0.9 c 0 -0.4 -0.2 -0.8 -0.6 -1 c -0.5 -0.3 -1 -0.4 -1.6 -0.4 c -0.7 0 -1.4 0.2 -1.9 0.7 c -0.5 0.5 -0.9 1.1 -1 1.8 l -3.4 -0.8 c 0.2 -0.9 0.6 -1.8 1.2 -2.5 c 0.6 -0.7 1.4 -1.3 2.3 -1.7 c 0.9 -0.4 2 -0.6 3 -0.6 c 1.5 -0.1 3.1 0.4 4.2 1.5 c 1.1 1 1.6 2.5 1.6 3.9 v 8.7 h -3.3 V 102 h -0.1 c -0.4 0.6 -1 1.1 -1.7 1.4 c -0.8 0.3 -1.6 0.5 -2.4 0.5 c -0.8 0 -1.7 -0.2 -2.4 -0.5 c -0.7 -0.3 -1.3 -0.8 -1.7 -1.4 C 115.5 101.3 115.3 100.6 115.3 99.9 z M 123.9 98.5 v -1.6 h -0.1 c -0.2 0.3 -0.5 0.5 -0.8 0.6 c -0.6 0.2 -1.1 0.4 -1.7 0.5 c -0.7 0.1 -1.4 0.3 -2 0.7 c -0.3 0.2 -0.6 0.6 -0.5 1 c 0 0.4 0.2 0.7 0.5 0.9 c 0.4 0.2 0.9 0.3 1.4 0.3 c 0.5 0 1.1 -0.1 1.6 -0.3 c 0.5 -0.2 0.9 -0.5 1.2 -0.9 C 123.7 99.3 123.9 98.9 123.9 98.5 L 123.9 98.5 z" stroke-linecap="round"/>
</g>
<g transform="matrix(3.5149 0 0 3.5149 606.8437 183.714)" id="851974">
<path style="stroke: none; stroke-width: 1; stroke-dasharray: none; stroke-linecap: butt; stroke-dashoffset: 0; stroke-linejoin: miter; stroke-miterlimit: 4; is-custom-font: none; font-file-url: none; fill: rgb(38,41,59); fill-rule: nonzero; opacity: 1;" transform=" translate(-139.05, -94.9576)" d="M 139.9 93.2 v 5.5 c 0 0.4 0.1 0.7 0.3 1 c 0.3 0.2 0.7 0.3 1.1 0.3 h 3.1 v 3.6 h -3.5 c -1.3 0.1 -2.5 -0.3 -3.5 -1.1 c -0.9 -0.8 -1.3 -1.9 -1.2 -3.1 v -6.3 h -3.4 v -3.3 h 3.4 v -3.5 h 3.7 v 3.5 h 5.4 v 3.3 H 139.9 z" stroke-linecap="round"/>
</g>
<g transform="matrix(3.5149 0 0 3.5149 668.3551 179.8209)" id="768221">
<path style="stroke: none; stroke-width: 1; stroke-dasharray: none; stroke-linecap: butt; stroke-dashoffset: 0; stroke-linejoin: miter; stroke-miterlimit: 4; is-custom-font: none; font-file-url: none; fill: rgb(38,41,59); fill-rule: nonzero; opacity: 1;" transform=" translate(-156.55, -93.85)" d="M 163.3 100.2 v 3.4 h -13.5 v -3.4 h 4.9 v -6.9 h -4.6 v -3.4 h 8.3 v 10.3 H 163.3 z M 154.7 84.1 h 3.8 v 3.6 h -3.8 V 84.1 z" stroke-linecap="round"/>
</g>
<g transform="matrix(3.5149 0 0 3.5149 730.5695 189.6629)" id="602085">
<path style="stroke: none; stroke-width: 1; stroke-dasharray: none; stroke-linecap: butt; stroke-dashoffset: 0; stroke-linejoin: miter; stroke-miterlimit: 4; is-custom-font: none; font-file-url: none; fill: rgb(38,41,59); fill-rule: nonzero; opacity: 1;" transform=" translate(-174.25, -96.65)" d="M 167.2 96.7 c 0 -1.3 0.3 -2.6 0.9 -3.8 c 0.6 -1.1 1.4 -2 2.5 -2.6 c 2.3 -1.2 5 -1.2 7.3 0 c 1 0.6 1.9 1.5 2.5 2.6 c 1.2 2.4 1.2 5.2 0 7.5 c -0.6 1.1 -1.4 2 -2.5 2.6 c -2.3 1.2 -5 1.2 -7.3 0 c -1 -0.6 -1.9 -1.5 -2.5 -2.6 C 167.5 99.3 167.2 98 167.2 96.7 z M 177.5 96.7 c 0.1 -1 -0.2 -2 -0.9 -2.8 c -0.6 -0.7 -1.5 -1.1 -2.4 -1 c -0.9 0 -1.8 0.3 -2.4 1 c -0.6 0.8 -0.9 1.8 -0.9 2.8 c -0.1 1 0.2 2 0.9 2.8 c 1.3 1.3 3.4 1.4 4.8 0.1 c 0 0 0.1 -0.1 0.1 -0.1 C 177.2 98.7 177.5 97.7 177.5 96.7 z" stroke-linecap="round"/>
</g>
<g transform="matrix(3.5149 0 0 3.5149 792.4661 189.1356)" id="591755">
<path style="stroke: none; stroke-width: 1; stroke-dasharray: none; stroke-linecap: butt; stroke-dashoffset: 0; stroke-linejoin: miter; stroke-miterlimit: 4; is-custom-font: none; font-file-url: none; fill: rgb(38,41,59); fill-rule: nonzero; opacity: 1;" transform=" translate(-191.8596, -96.5)" d="M 185.4 89.9 h 3.7 v 1.3 h 0.1 c 0.5 -0.5 1.1 -0.9 1.8 -1.3 c 0.7 -0.3 1.4 -0.4 2.2 -0.4 c 0.9 0 1.7 0.2 2.5 0.6 c 0.8 0.5 1.5 1.1 1.9 1.9 c 0.5 1 0.8 2.1 0.7 3.2 v 8.3 h -3.7 v -7.8 c 0 -0.8 -0.2 -1.5 -0.7 -2.1 c -0.5 -0.6 -1.2 -0.8 -1.9 -0.8 c -0.8 0 -1.5 0.2 -2.1 0.8 c -0.5 0.6 -0.8 1.3 -0.8 2.1 v 7.8 h -3.7 L 185.4 89.9 z" stroke-linecap="round"/>
</g>
</svg>